PathFileType	4	(X / Y / Z)	Demo_140508_11_September_2019	Demo_140508_11_September_2019.trc
DataRate	CameraRate	NumFrames	NumMarkers	Units	OrigDataRate	OrigDataStartFrame	OrigNumFrames
50	50	25	25	m	50	3186	3585
Frame#	Time		SpineBase		SpineMid		Neck		Head		ShoulderLeft		ElbowLeft		WristLeft		HandLeft		ShoulderRight		ElbowRight		WristRight		HandRight		HipLeft		KneeLeft		AnkleLeft		FootLeft		HipRight		KneeRight		AnkleRight		FootRight		SpineShoulder		HandTipLeft		LeftThumb		HandTipRight		ThumbRight		
X1	Y1	Z1	X2	Y2	Z2	X3	Y3	Z3	X4	Y4	Z4	X5	Y5	Z5	X6	Y6	Z6	X7	Y7	Z7	X8	Y8	Z8	X9	Y9	Z9	X10	Y10	Z10	X11	Y11	Z11	X12	Y12	Z12	X13	Y13	Z13	X14	Y14	Z14	X15	Y15	Z15	X16	Y16	Z16	X17	Y17	Z17	X18	Y18	Z18	X19	Y19	Z19	X20	Y20	Z20	X21	Y21	Z21	X22	Y22	Z22	X23	Y23	Z23	X24	Y24	Z24	X25	Y25	Z25	
3137	71.944	0.127	0.757	1.802	0.119	1.058	1.776	0.112	1.344	1.736	0.115	1.483	1.708	-0.037	1.235	1.730	-0.090	0.967	1.753	-0.163	0.759	1.710	-0.165	0.762	1.716	0.266	1.219	1.721	0.447	1.035	1.753	0.598	0.879	1.772	0.604	0.889	1.775	0.057	0.764	1.767	0.026	0.486	1.723	0.019	0.181	1.694	0.014	0.191	1.588	0.192	0.758	1.769	0.182	0.477	1.821	0.106	0.166	1.914	0.120	0.134	1.820	0.114	1.274	1.749	-0.161	0.681	1.708	-0.141	0.746	1.681	0.660	0.819	1.820	0.633	0.814	1.818
3138	71.960	0.127	0.756	1.802	0.119	1.057	1.775	0.112	1.344	1.736	0.115	1.483	1.707	-0.037	1.235	1.728	-0.091	0.968	1.752	-0.168	0.762	1.709	-0.168	0.762	1.716	0.267	1.219	1.722	0.494	1.084	1.756	0.693	0.970	1.768	0.726	0.976	1.772	0.058	0.763	1.767	0.026	0.486	1.722	0.017	0.175	1.691	0.016	0.186	1.584	0.192	0.757	1.769	0.185	0.479	1.820	0.105	0.162	1.915	0.118	0.132	1.828	0.114	1.274	1.748	-0.166	0.684	1.708	-0.145	0.749	1.680	0.787	0.929	1.820	0.764	0.924	1.814
3139	71.977	0.127	0.756	1.802	0.119	1.057	1.775	0.112	1.344	1.736	0.115	1.483	1.707	-0.037	1.235	1.728	-0.091	0.968	1.752	-0.168	0.762	1.709	-0.168	0.762	1.716	0.267	1.219	1.722	0.494	1.084	1.756	0.693	0.970	1.768	0.726	0.976	1.772	0.058	0.763	1.767	0.026	0.486	1.722	0.017	0.175	1.691	0.016	0.186	1.584	0.192	0.757	1.769	0.185	0.479	1.820	0.105	0.162	1.915	0.118	0.132	1.828	0.114	1.274	1.748	-0.166	0.684	1.708	-0.145	0.749	1.680	0.787	0.929	1.820	0.764	0.924	1.814
3140	71.994	0.127	0.756	1.800	0.119	1.057	1.774	0.112	1.344	1.735	0.115	1.483	1.707	-0.037	1.236	1.727	-0.092	0.969	1.751	-0.172	0.764	1.709	-0.170	0.763	1.715	0.276	1.220	1.727	0.526	1.136	1.757	0.751	1.071	1.766	0.770	1.074	1.763	0.057	0.763	1.765	0.026	0.486	1.722	0.015	0.170	1.689	0.017	0.182	1.582	0.192	0.757	1.768	0.187	0.481	1.819	0.104	0.157	1.916	0.116	0.130	1.835	0.114	1.274	1.747	-0.169	0.686	1.707	-0.147	0.751	1.679	0.878	1.055	1.810	0.758	1.050	1.783
3141	72.010	0.127	0.756	1.800	0.119	1.057	1.774	0.112	1.344	1.735	0.115	1.483	1.707	-0.037	1.236	1.727	-0.092	0.969	1.751	-0.172	0.764	1.709	-0.170	0.763	1.715	0.276	1.220	1.727	0.526	1.136	1.757	0.751	1.071	1.766	0.770	1.074	1.763	0.057	0.763	1.765	0.026	0.486	1.722	0.015	0.170	1.689	0.017	0.182	1.582	0.192	0.757	1.768	0.187	0.481	1.819	0.104	0.157	1.916	0.116	0.130	1.835	0.114	1.274	1.747	-0.169	0.686	1.707	-0.147	0.751	1.679	0.878	1.055	1.810	0.758	1.050	1.783
3142	72.027	0.126	0.756	1.798	0.119	1.057	1.773	0.112	1.344	1.735	0.116	1.483	1.706	-0.037	1.236	1.726	-0.093	0.971	1.749	-0.175	0.765	1.709	-0.172	0.763	1.714	0.286	1.222	1.733	0.558	1.184	1.761	0.792	1.174	1.760	0.788	1.182	1.753	0.056	0.763	1.762	0.026	0.486	1.721	0.014	0.168	1.688	0.018	0.179	1.580	0.192	0.757	1.766	0.188	0.482	1.818	0.107	0.170	1.912	0.117	0.138	1.817	0.114	1.274	1.747	-0.172	0.687	1.706	-0.150	0.752	1.678	0.920	1.191	1.789	0.775	1.168	1.764
3143	72.044	0.126	0.756	1.798	0.119	1.057	1.773	0.112	1.344	1.735	0.116	1.483	1.706	-0.037	1.236	1.726	-0.093	0.971	1.749	-0.175	0.765	1.709	-0.172	0.763	1.714	0.286	1.222	1.733	0.558	1.184	1.761	0.792	1.174	1.760	0.788	1.182	1.753	0.056	0.763	1.762	0.026	0.486	1.721	0.014	0.168	1.688	0.018	0.179	1.580	0.192	0.757	1.766	0.188	0.482	1.818	0.107	0.170	1.912	0.117	0.138	1.817	0.114	1.274	1.747	-0.172	0.687	1.706	-0.150	0.752	1.678	0.920	1.191	1.789	0.775	1.168	1.764
3144	72.061	0.125	0.756	1.796	0.119	1.057	1.772	0.112	1.344	1.734	0.116	1.483	1.706	-0.036	1.236	1.724	-0.094	0.972	1.748	-0.177	0.767	1.709	-0.174	0.763	1.712	0.292	1.223	1.737	0.572	1.218	1.762	0.785	1.289	1.746	0.774	1.288	1.741	0.055	0.764	1.758	0.025	0.486	1.721	0.015	0.181	1.696	0.022	0.190	1.583	0.191	0.757	1.764	0.188	0.483	1.817	0.109	0.178	1.910	0.118	0.143	1.804	0.114	1.274	1.746	-0.173	0.688	1.705	-0.151	0.753	1.678	0.884	1.320	1.741	0.782	1.285	1.742
3145	72.077	0.125	0.756	1.796	0.119	1.057	1.772	0.112	1.344	1.734	0.116	1.483	1.706	-0.036	1.236	1.724	-0.094	0.972	1.748	-0.177	0.767	1.709	-0.174	0.763	1.712	0.292	1.223	1.737	0.572	1.218	1.762	0.785	1.289	1.746	0.774	1.288	1.741	0.055	0.764	1.758	0.025	0.486	1.721	0.015	0.181	1.696	0.022	0.190	1.583	0.191	0.757	1.764	0.188	0.483	1.817	0.109	0.178	1.910	0.118	0.143	1.804	0.114	1.274	1.746	-0.173	0.688	1.705	-0.151	0.753	1.678	0.884	1.320	1.741	0.782	1.285	1.742
3146	72.094	0.124	0.757	1.793	0.119	1.057	1.771	0.112	1.344	1.733	0.117	1.483	1.705	-0.036	1.236	1.723	-0.095	0.973	1.747	-0.178	0.768	1.708	-0.174	0.762	1.709	0.296	1.224	1.739	0.573	1.253	1.763	0.755	1.382	1.739	0.773	1.409	1.728	0.053	0.765	1.755	0.024	0.487	1.720	0.014	0.179	1.693	0.023	0.188	1.580	0.190	0.758	1.763	0.188	0.484	1.816	0.111	0.184	1.908	0.118	0.147	1.796	0.114	1.274	1.745	-0.175	0.688	1.703	-0.152	0.754	1.676	0.873	1.467	1.743	0.768	1.396	1.726
3147	72.111	0.124	0.757	1.793	0.119	1.057	1.771	0.112	1.344	1.733	0.117	1.483	1.705	-0.036	1.236	1.723	-0.095	0.973	1.747	-0.178	0.768	1.708	-0.174	0.762	1.709	0.296	1.224	1.739	0.573	1.253	1.763	0.755	1.382	1.739	0.773	1.409	1.728	0.053	0.765	1.755	0.024	0.487	1.720	0.014	0.179	1.693	0.023	0.188	1.580	0.190	0.758	1.763	0.188	0.484	1.816	0.111	0.184	1.908	0.118	0.147	1.796	0.114	1.274	1.745	-0.175	0.688	1.703	-0.152	0.754	1.676	0.873	1.467	1.743	0.768	1.396	1.726
3148	72.127	0.123	0.758	1.791	0.119	1.057	1.770	0.113	1.344	1.733	0.117	1.483	1.704	-0.036	1.236	1.722	-0.095	0.973	1.745	-0.179	0.769	1.707	-0.172	0.762	1.705	0.300	1.226	1.741	0.570	1.278	1.764	0.704	1.462	1.734	0.719	1.494	1.722	0.052	0.766	1.753	0.023	0.487	1.719	0.020	0.182	1.700	0.020	0.189	1.582	0.190	0.759	1.762	0.187	0.484	1.815	0.112	0.187	1.907	0.119	0.149	1.790	0.115	1.274	1.745	-0.174	0.688	1.700	-0.152	0.755	1.675	0.806	1.582	1.742	0.732	1.490	1.719
3149	72.144	0.123	0.758	1.791	0.119	1.057	1.770	0.113	1.344	1.733	0.117	1.483	1.704	-0.036	1.236	1.722	-0.095	0.973	1.745	-0.179	0.769	1.707	-0.172	0.762	1.705	0.300	1.226	1.741	0.570	1.278	1.764	0.704	1.462	1.734	0.719	1.494	1.722	0.052	0.766	1.753	0.023	0.487	1.719	0.020	0.182	1.700	0.020	0.189	1.582	0.190	0.759	1.762	0.187	0.484	1.815	0.112	0.187	1.907	0.119	0.149	1.790	0.115	1.274	1.745	-0.174	0.688	1.700	-0.152	0.755	1.675	0.806	1.582	1.742	0.732	1.490	1.719
3150	72.161	0.123	0.759	1.790	0.119	1.057	1.769	0.113	1.344	1.732	0.118	1.483	1.704	-0.036	1.236	1.721	-0.095	0.974	1.744	-0.179	0.769	1.704	-0.168	0.762	1.700	0.304	1.228	1.743	0.559	1.308	1.762	0.656	1.525	1.731	0.676	1.580	1.723	0.052	0.767	1.751	0.023	0.488	1.718	0.022	0.171	1.701	0.019	0.176	1.598	0.189	0.759	1.760	0.186	0.484	1.815	0.112	0.190	1.906	0.119	0.151	1.786	0.115	1.274	1.744	-0.173	0.689	1.695	-0.151	0.755	1.672	0.732	1.658	1.741	0.700	1.592	1.734
3151	72.177	0.123	0.759	1.790	0.119	1.057	1.769	0.113	1.344	1.732	0.118	1.483	1.704	-0.036	1.236	1.721	-0.095	0.974	1.744	-0.179	0.769	1.704	-0.168	0.762	1.700	0.304	1.228	1.743	0.559	1.308	1.762	0.656	1.525	1.731	0.676	1.580	1.723	0.052	0.767	1.751	0.023	0.488	1.718	0.022	0.171	1.701	0.019	0.176	1.598	0.189	0.759	1.760	0.186	0.484	1.815	0.112	0.190	1.906	0.119	0.151	1.786	0.115	1.274	1.744	-0.173	0.689	1.695	-0.151	0.755	1.672	0.732	1.658	1.741	0.700	1.592	1.734
3152	72.194	0.123	0.760	1.789	0.120	1.057	1.769	0.113	1.344	1.732	0.118	1.483	1.703	-0.036	1.236	1.721	-0.094	0.973	1.740	-0.169	0.764	1.694	-0.155	0.756	1.691	0.308	1.231	1.744	0.545	1.342	1.760	0.599	1.580	1.732	0.603	1.585	1.732	0.052	0.768	1.749	0.022	0.488	1.717	0.024	0.168	1.701	0.021	0.173	1.598	0.189	0.760	1.760	0.176	0.469	1.820	0.113	0.191	1.906	0.119	0.152	1.783	0.115	1.274	1.743	-0.163	0.685	1.688	-0.143	0.752	1.666	0.653	1.706	1.738	0.623	1.581	1.725
3153	72.211	0.123	0.760	1.789	0.120	1.057	1.769	0.113	1.344	1.732	0.118	1.483	1.703	-0.036	1.236	1.721	-0.094	0.973	1.740	-0.169	0.764	1.694	-0.155	0.756	1.691	0.308	1.231	1.744	0.545	1.342	1.760	0.599	1.580	1.732	0.603	1.585	1.732	0.052	0.768	1.749	0.022	0.488	1.717	0.024	0.168	1.701	0.021	0.173	1.598	0.189	0.760	1.760	0.176	0.469	1.820	0.113	0.191	1.906	0.119	0.152	1.783	0.115	1.274	1.743	-0.163	0.685	1.688	-0.143	0.752	1.666	0.653	1.706	1.738	0.623	1.581	1.725
3154	72.228	0.123	0.760	1.789	0.120	1.057	1.769	0.113	1.344	1.732	0.118	1.483	1.703	-0.036	1.236	1.721	-0.094	0.973	1.740	-0.169	0.764	1.694	-0.155	0.756	1.691	0.308	1.231	1.744	0.545	1.342	1.760	0.599	1.580	1.732	0.603	1.585	1.732	0.052	0.768	1.749	0.022	0.488	1.717	0.024	0.168	1.701	0.021	0.173	1.598	0.189	0.760	1.760	0.176	0.469	1.820	0.113	0.191	1.906	0.119	0.152	1.783	0.115	1.274	1.743	-0.163	0.685	1.688	-0.143	0.752	1.666	0.653	1.706	1.738	0.623	1.581	1.725
3155	72.244	0.123	0.760	1.789	0.120	1.057	1.769	0.113	1.344	1.732	0.118	1.483	1.703	-0.036	1.236	1.721	-0.094	0.973	1.740	-0.169	0.764	1.694	-0.155	0.756	1.691	0.308	1.231	1.744	0.545	1.342	1.760	0.599	1.580	1.732	0.603	1.585	1.732	0.052	0.768	1.749	0.022	0.488	1.717	0.024	0.168	1.701	0.021	0.173	1.598	0.189	0.760	1.760	0.176	0.469	1.820	0.113	0.191	1.906	0.119	0.152	1.783	0.115	1.274	1.743	-0.163	0.685	1.688	-0.143	0.752	1.666	0.653	1.706	1.738	0.623	1.581	1.725
3156	72.261	0.123	0.760	1.788	0.120	1.057	1.768	0.114	1.344	1.731	0.119	1.483	1.703	-0.035	1.236	1.720	-0.092	0.971	1.737	-0.160	0.760	1.687	-0.141	0.750	1.683	0.311	1.234	1.745	0.540	1.355	1.759	0.585	1.578	1.734	0.590	1.582	1.738	0.052	0.769	1.748	0.022	0.488	1.716	0.025	0.166	1.700	0.023	0.171	1.597	0.189	0.761	1.759	0.172	0.464	1.822	0.113	0.192	1.905	0.119	0.153	1.781	0.115	1.274	1.743	-0.149	0.680	1.679	-0.133	0.749	1.662	0.638	1.702	1.738	0.597	1.577	1.720
3157	72.278	0.123	0.760	1.788	0.120	1.057	1.768	0.114	1.344	1.731	0.119	1.483	1.703	-0.035	1.236	1.720	-0.092	0.971	1.737	-0.160	0.760	1.687	-0.141	0.750	1.683	0.311	1.234	1.745	0.540	1.355	1.759	0.585	1.578	1.734	0.590	1.582	1.738	0.052	0.769	1.748	0.022	0.488	1.716	0.025	0.166	1.700	0.023	0.171	1.597	0.189	0.761	1.759	0.172	0.464	1.822	0.113	0.192	1.905	0.119	0.153	1.781	0.115	1.274	1.743	-0.149	0.680	1.679	-0.133	0.749	1.662	0.638	1.702	1.738	0.597	1.577	1.720
3158	72.294	0.123	0.761	1.787	0.120	1.057	1.767	0.114	1.344	1.731	0.119	1.483	1.703	-0.035	1.236	1.720	-0.090	0.969	1.734	-0.133	0.749	1.680	-0.121	0.724	1.676	0.313	1.236	1.745	0.536	1.363	1.758	0.583	1.574	1.737	0.594	1.560	1.742	0.052	0.769	1.748	0.021	0.489	1.716	0.025	0.165	1.700	0.024	0.170	1.595	0.189	0.762	1.759	0.169	0.461	1.824	0.113	0.193	1.905	0.120	0.154	1.779	0.116	1.274	1.742	-0.131	0.673	1.674	-0.122	0.745	1.657	0.641	1.674	1.736	0.586	1.555	1.715
3159	72.311	0.123	0.761	1.787	0.120	1.057	1.767	0.114	1.344	1.731	0.119	1.483	1.703	-0.035	1.236	1.720	-0.090	0.969	1.734	-0.133	0.749	1.680	-0.121	0.724	1.676	0.313	1.236	1.745	0.536	1.363	1.758	0.583	1.574	1.737	0.594	1.560	1.742	0.052	0.769	1.748	0.021	0.489	1.716	0.025	0.165	1.700	0.024	0.170	1.595	0.189	0.762	1.759	0.169	0.461	1.824	0.113	0.193	1.905	0.120	0.154	1.779	0.116	1.274	1.742	-0.131	0.673	1.674	-0.122	0.745	1.657	0.641	1.674	1.736	0.586	1.555	1.715
3160	72.328	0.123	0.762	1.787	0.120	1.057	1.767	0.114	1.344	1.731	0.119	1.483	1.702	-0.035	1.236	1.720	-0.087	0.965	1.730	-0.117	0.741	1.679	-0.108	0.710	1.675	0.314	1.238	1.745	0.533	1.361	1.757	0.613	1.547	1.743	0.654	1.547	1.739	0.052	0.770	1.747	0.021	0.489	1.716	0.025	0.163	1.698	0.025	0.169	1.592	0.188	0.763	1.759	0.167	0.459	1.825	0.113	0.193	1.905	0.120	0.154	1.778	0.116	1.274	1.742	-0.116	0.666	1.671	-0.095	0.738	1.672	0.684	1.627	1.742	0.625	1.544	1.702
3161	72.344	0.123	0.762	1.787	0.120	1.057	1.767	0.114	1.344	1.731	0.119	1.483	1.702	-0.035	1.236	1.720	-0.087	0.965	1.730	-0.117	0.741	1.679	-0.108	0.710	1.675	0.314	1.238	1.745	0.533	1.361	1.757	0.613	1.547	1.743	0.654	1.547	1.739	0.052	0.770	1.747	0.021	0.489	1.716	0.025	0.163	1.698	0.025	0.169	1.592	0.188	0.763	1.759	0.167	0.459	1.825	0.113	0.193	1.905	0.120	0.154	1.778	0.116	1.274	1.742	-0.116	0.666	1.671	-0.095	0.738	1.672	0.684	1.627	1.742	0.625	1.544	1.702
